<svg width="20" height="14" viewBox="0 0 20 14" fill="none" xmlns="http://www.w3.org/2000/svg">
<path d="M19.375 10.4375H19.0625V7.9375C19.0621 7.60611 18.9302 7.28842 18.6959 7.0541C18.4616 6.81977 18.1439 6.68793 17.8125 6.6875V1.375C17.8121 1.04361 17.6802 0.725922 17.4459 0.491596C17.2116 0.25727 16.8939 0.125434 16.5625 0.125H3.4375C3.10611 0.125434 2.78842 0.25727 2.5541 0.491596C2.31977 0.725922 2.18793 1.04361 2.1875 1.375V6.6875C1.85611 6.68793 1.53842 6.81977 1.3041 7.0541C1.06977 7.28842 0.937934 7.60611 0.9375 7.9375V10.4375H0.625C0.54212 10.4375 0.462634 10.4704 0.404029 10.529C0.345424 10.5876 0.3125 10.6671 0.3125 10.75V12C0.3125 12.0829 0.345424 12.1624 0.404029 12.221C0.462634 12.2796 0.54212 12.3125 0.625 12.3125H0.9375V13.5625C0.9375 13.6454 0.970424 13.7249 1.02903 13.7835C1.08763 13.8421 1.16712 13.875 1.25 13.875H2.1875C2.25973 13.875 2.32973 13.85 2.38557 13.8042C2.44142 13.7584 2.47965 13.6947 2.49375 13.6238L2.75625 12.3125H17.2437L17.5063 13.6238C17.5204 13.6947 17.5586 13.7584 17.6144 13.8042C17.6703 13.85 17.7403 13.875 17.8125 13.875H18.75C18.8329 13.875 18.9124 13.8421 18.971 13.7835C19.0296 13.7249 19.0625 13.6454 19.0625 13.5625V12.3125H19.375C19.4579 12.3125 19.5374 12.2796 19.596 12.221C19.6546 12.1624 19.6875 12.0829 19.6875 12V10.75C19.6875 10.6671 19.6546 10.5876 19.596 10.529C19.5374 10.4704 19.4579 10.4375 19.375 10.4375ZM2.8125 1.375C2.81272 1.20931 2.87863 1.05046 2.9958 0.933298C3.11296 0.816135 3.27181 0.750217 3.4375 0.75H16.5625C16.7282 0.750217 16.887 0.816135 17.0042 0.933298C17.1214 1.05046 17.1873 1.20931 17.1875 1.375V6.6875H16.5625V5.4375C16.5621 5.10611 16.4302 4.78842 16.1959 4.5541C15.9616 4.31977 15.6439 4.18793 15.3125 4.1875H11.5625C11.2311 4.18793 10.9134 4.31977 10.6791 4.5541C10.4448 4.78842 10.3129 5.10611 10.3125 5.4375V6.6875H9.6875V5.4375C9.68707 5.10611 9.55523 4.78842 9.3209 4.5541C9.08658 4.31977 8.76889 4.18793 8.4375 4.1875H4.6875C4.35611 4.18793 4.03842 4.31977 3.8041 4.5541C3.56977 4.78842 3.43793 5.10611 3.4375 5.4375V6.6875H2.8125V1.375ZM15.9375 5.4375V6.6875H10.9375V5.4375C10.9377 5.27181 11.0036 5.11296 11.1208 4.9958C11.238 4.87863 11.3968 4.81272 11.5625 4.8125H15.3125C15.4782 4.81272 15.637 4.87863 15.7542 4.9958C15.8714 5.11296 15.9373 5.27181 15.9375 5.4375ZM9.0625 5.4375V6.6875H4.0625V5.4375C4.06272 5.27181 4.12863 5.11296 4.2458 4.9958C4.36296 4.87863 4.52181 4.81272 4.6875 4.8125H8.4375C8.60319 4.81272 8.76204 4.87863 8.8792 4.9958C8.99637 5.11296 9.06228 5.27181 9.0625 5.4375ZM1.5625 7.9375C1.56272 7.77181 1.62863 7.61296 1.7458 7.4958C1.86296 7.37863 2.02181 7.31272 2.1875 7.3125H17.8125C17.9782 7.31272 18.137 7.37863 18.2542 7.4958C18.3714 7.61296 18.4373 7.77181 18.4375 7.9375V10.4375H1.5625V7.9375ZM1.93125 13.25H1.5625V12.3125H2.11875L1.93125 13.25ZM18.4375 13.25H18.0688L17.8813 12.3125H18.4375V13.25ZM19.0625 11.6875H0.9375V11.0625H19.0625V11.6875Z" fill="black"/>
</svg>
