<svg width="21" height="18" viewBox="0 0 21 18" fill="none" xmlns="http://www.w3.org/2000/svg">
<path d="M19.875 9H4.25V8.375C4.25 8.29212 4.21708 8.21263 4.15847 8.15403C4.09987 8.09542 4.02038 8.0625 3.9375 8.0625H3.625V7.125H4.25V7.4375C4.25 7.52038 4.28292 7.59987 4.34153 7.65847C4.40013 7.71708 4.47962 7.75 4.5625 7.75C4.64538 7.75 4.72487 7.71708 4.78347 7.65847C4.84208 7.59987 4.875 7.52038 4.875 7.4375V6.1875C4.875 6.10462 4.84208 6.02513 4.78347 5.96653C4.72487 5.90792 4.64538 5.875 4.5625 5.875C4.47962 5.875 4.40013 5.90792 4.34153 5.96653C4.28292 6.02513 4.25 6.10462 4.25 6.1875V6.5H3.625V2.75C3.62531 2.41857 3.75711 2.10081 3.99146 1.86646C4.22581 1.63211 4.54357 1.50031 4.875 1.5H6.125C6.45643 1.50031 6.77419 1.63211 7.00854 1.86646C7.24289 2.10081 7.37469 2.41857 7.375 2.75V2.77656C6.93839 2.85091 6.54211 3.0772 6.25619 3.41544C5.97027 3.75368 5.81312 4.1821 5.8125 4.625C5.8125 4.70788 5.84542 4.78737 5.90403 4.84597C5.96263 4.90458 6.04212 4.9375 6.125 4.9375H9.25C9.33288 4.9375 9.41237 4.90458 9.47097 4.84597C9.52958 4.78737 9.5625 4.70788 9.5625 4.625C9.56188 4.1821 9.40473 3.75368 9.11881 3.41544C8.83289 3.0772 8.43661 2.85091 8 2.77656V2.75C7.99947 2.25288 7.80176 1.77627 7.45024 1.42476C7.09873 1.07324 6.62212 0.875527 6.125 0.875H4.875C4.37788 0.875527 3.90127 1.07324 3.54976 1.42476C3.19824 1.77627 3.00053 2.25288 3 2.75V8.0625H2.6875C2.60462 8.0625 2.52513 8.09542 2.46653 8.15403C2.40792 8.21263 2.375 8.29212 2.375 8.375V9H1.125C1.04212 9 0.962634 9.03292 0.904029 9.09153C0.845424 9.15013 0.8125 9.22962 0.8125 9.3125V10.25C0.8125 10.3329 0.845424 10.4124 0.904029 10.471C0.962634 10.5296 1.04212 10.5625 1.125 10.5625H2.0625V14.3125C2.06312 14.7554 2.22027 15.1838 2.50619 15.5221C2.79211 15.8603 3.18839 16.0866 3.625 16.1609V16.8125C3.625 16.8954 3.65792 16.9749 3.71653 17.0335C3.77513 17.0921 3.85462 17.125 3.9375 17.125C4.02038 17.125 4.09987 17.0921 4.15847 17.0335C4.21708 16.9749 4.25 16.8954 4.25 16.8125V16.1875H16.75V16.8125C16.75 16.8954 16.7829 16.9749 16.8415 17.0335C16.9001 17.0921 16.9796 17.125 17.0625 17.125C17.1454 17.125 17.2249 17.0921 17.2835 17.0335C17.3421 16.9749 17.375 16.8954 17.375 16.8125V16.1609C17.8116 16.0866 18.2079 15.8603 18.4938 15.5221C18.7797 15.1838 18.9369 14.7554 18.9375 14.3125V10.5625H19.875C19.9579 10.5625 20.0374 10.5296 20.096 10.471C20.1546 10.4124 20.1875 10.3329 20.1875 10.25V9.3125C20.1875 9.22962 20.1546 9.15013 20.096 9.09153C20.0374 9.03292 19.9579 9 19.875 9ZM7.6875 3.375C7.96456 3.37533 8.23369 3.46754 8.45274 3.63719C8.6718 3.80683 8.82841 4.04433 8.89805 4.3125H6.47695C6.54659 4.04433 6.7032 3.80683 6.92226 3.63719C7.14131 3.46754 7.41044 3.37533 7.6875 3.375ZM3 8.6875H3.625V9H3V8.6875ZM18.3125 14.3125C18.3122 14.6439 18.1804 14.9617 17.946 15.196C17.7117 15.4304 17.3939 15.5622 17.0625 15.5625H3.9375C3.60607 15.5622 3.28831 15.4304 3.05396 15.196C2.81961 14.9617 2.68781 14.6439 2.6875 14.3125V10.5625H18.3125V14.3125ZM19.5625 9.9375H1.4375V9.625H19.5625V9.9375Z" fill="black"/>
</svg>
