<svg width="20" height="20" viewBox="0 0 20 20" fill="none" xmlns="http://www.w3.org/2000/svg">
<g clip-path="url(#clip0)">
<path d="M9.99998 0C9.75998 0 9.56519 0.194796 9.56519 0.434796V12.6087C9.56519 12.8487 9.75998 13.0435 9.99998 13.0435C10.24 13.0435 10.4348 12.8487 10.4348 12.6087V0.434796C10.4348 0.194796 10.24 0 9.99998 0Z" fill="black"/>
<path d="M19.5651 8.69568H16.0869C15.8469 8.69568 15.6521 8.89048 15.6521 9.13048C15.6521 9.37047 15.8469 9.56527 16.0869 9.56527H19.5651C19.8051 9.56527 19.9999 9.37047 19.9999 9.13048C19.9999 8.89048 19.8051 8.69568 19.5651 8.69568Z" fill="black"/>
<path d="M12.6087 8.69568H7.39134C7.15134 8.69568 6.95654 8.89048 6.95654 9.13048C6.95654 9.37047 7.15134 9.56527 7.39134 9.56527H12.6087C12.8487 9.56527 13.0435 9.37047 13.0435 9.13048C13.0435 8.89048 12.8487 8.69568 12.6087 8.69568Z" fill="black"/>
<path d="M3.91304 8.69568H0.434796C0.194796 8.69568 0 8.89048 0 9.13048C0 9.37047 0.194796 9.56527 0.434796 9.56527H3.91304C4.15304 9.56527 4.34784 9.37047 4.34784 9.13048C4.34784 8.89048 4.15304 8.69568 3.91304 8.69568Z" fill="black"/>
<path d="M9.99998 15.6522C9.75998 15.6522 9.56519 15.847 9.56519 16.087V19.5653C9.56519 19.8053 9.75998 20.0001 9.99998 20.0001C10.24 20.0001 10.4348 19.8053 10.4348 19.5653V16.087C10.4348 15.847 10.24 15.6522 9.99998 15.6522Z" fill="black"/>
<path d="M19.5652 0H0.434796C0.194796 0 0 0.194796 0 0.434796V12.6087C0 12.8478 0.194796 13.0435 0.434796 13.0435H1.30435C1.54435 13.0435 1.73914 12.8487 1.73914 12.6087C1.73914 12.3687 1.54435 12.1739 1.30435 12.1739H0.869551V0.869551H19.1304V19.1304H0.869551V16.5217H1.30435C1.54435 16.5217 1.73914 16.3269 1.73914 16.0869C1.73914 15.8469 1.54435 15.6522 1.30435 15.6522H0.434796C0.194796 15.6522 0 15.847 0 16.087V19.5652C0 19.8052 0.194796 20 0.434796 20H19.5652C19.8052 20 20 19.8052 20 19.5652V0.434796C20 0.194796 19.8052 0 19.5652 0Z" fill="black"/>
<path d="M10.8695 12.174H9.13035C8.89035 12.174 8.69556 12.3687 8.69556 12.6087C8.69556 12.8487 8.89035 13.0435 9.13035 13.0435H10.8695C11.1095 13.0435 11.3043 12.8487 11.3043 12.6087C11.3043 12.3687 11.1095 12.174 10.8695 12.174Z" fill="black"/>
<path d="M10.8695 15.6522H9.13035C8.89035 15.6522 8.69556 15.847 8.69556 16.087C8.69556 16.327 8.89035 16.5218 9.13035 16.5218H10.8695C11.1095 16.5218 11.3043 16.327 11.3043 16.087C11.3043 15.847 11.1095 15.6522 10.8695 15.6522Z" fill="black"/>
<path d="M3.91307 7.82605C3.67307 7.82605 3.47827 8.02085 3.47827 8.26085V9.99999C3.47827 10.24 3.67307 10.4347 3.91307 10.4347C4.15307 10.4347 4.34786 10.24 4.34786 9.99995V8.26081C4.34786 8.02085 4.15307 7.82605 3.91307 7.82605Z" fill="black"/>
<path d="M7.39134 7.82605C7.15134 7.82605 6.95654 8.02085 6.95654 8.26085V9.99999C6.95654 10.24 7.15134 10.4348 7.39134 10.4348C7.63134 10.4348 7.82613 10.2399 7.82613 9.99995V8.2608C7.82613 8.02085 7.63134 7.82605 7.39134 7.82605Z" fill="black"/>
<path d="M12.6086 7.82605C12.3686 7.82605 12.1738 8.02085 12.1738 8.26085V9.99999C12.1738 10.24 12.3686 10.4348 12.6086 10.4348C12.8486 10.4348 13.0434 10.2399 13.0434 9.99995V8.2608C13.0434 8.02085 12.8486 7.82605 12.6086 7.82605Z" fill="black"/>
<path d="M16.0869 7.82605C15.8469 7.82605 15.6521 8.02085 15.6521 8.26085V9.99999C15.6521 10.24 15.8469 10.4348 16.0869 10.4348C16.3269 10.4348 16.5217 10.24 16.5217 9.99999V8.26085C16.5217 8.02085 16.3269 7.82605 16.0869 7.82605Z" fill="black"/>
</g>
<defs>
<clipPath id="clip0">
<rect width="20" height="20" fill="white"/>
</clipPath>
</defs>
</svg>
