<svg width="20" height="20" viewBox="0 0 20 20" fill="none" xmlns="http://www.w3.org/2000/svg">
<path d="M19.5652 0H0.434796C0.194796 0 0 0.194796 0 0.434796V12.6087C0 12.8478 0.194796 13.0435 0.434796 13.0435H1.30435C1.54435 13.0435 1.73914 12.8487 1.73914 12.6087C1.73914 12.3687 1.54435 12.1739 1.30435 12.1739H0.869551V0.869551H19.1304V19.1304H0.869551V16.5217H1.30435C1.54435 16.5217 1.73914 16.3269 1.73914 16.0869C1.73914 15.8469 1.54435 15.6522 1.30435 15.6522H0.434796C0.194796 15.6522 0 15.847 0 16.087V19.5652C0 19.8052 0.194796 20 0.434796 20H19.5652C19.8052 20 20 19.8052 20 19.5652V0.434796C20 0.194796 19.8052 0 19.5652 0Z" fill="black"/>
</svg>
